<svg width="50" height="51" viewBox="0 0 50 51" fill="none" xmlns="http://www.w3.org/2000/svg">
<path d="M35.4163 38.2126C33.1038 38.2126 31.2497 40.0668 31.2497 42.3793C31.2497 43.4843 31.6887 44.5441 32.4701 45.3256C33.2515 46.1069 34.3113 46.5459 35.4163 46.5459C36.5214 46.5459 37.5812 46.1069 38.3626 45.3256C39.144 44.5441 39.583 43.4843 39.583 42.3793C39.583 41.2742 39.144 40.2144 38.3626 39.433C37.5812 38.6516 36.5214 38.2126 35.4163 38.2126ZM2.08301 4.87927V9.04594H6.24967L13.7497 24.8584L10.9163 29.9626C10.6038 30.5459 10.4163 31.2334 10.4163 31.9626C10.4163 33.0677 10.8553 34.1275 11.6367 34.9089C12.4181 35.6903 13.4779 36.1293 14.583 36.1293H39.583V31.9626H15.458C15.3199 31.9626 15.1874 31.9077 15.0897 31.8101C14.992 31.7124 14.9372 31.5799 14.9372 31.4418C14.9372 31.3376 14.958 31.2543 14.9997 31.1918L16.8747 27.7959H32.3955C33.958 27.7959 35.333 26.9209 36.0413 25.6501L43.4997 12.1709C43.6455 11.8376 43.7497 11.4834 43.7497 11.1293C43.7497 10.5767 43.5302 10.0468 43.1395 9.65613C42.7488 9.26543 42.2189 9.04594 41.6663 9.04594H10.8538L8.89551 4.87927M14.583 38.2126C12.2705 38.2126 10.4163 40.0668 10.4163 42.3793C10.4163 43.4843 10.8553 44.5441 11.6367 45.3256C12.4181 46.1069 13.4779 46.5459 14.583 46.5459C15.6881 46.5459 16.7479 46.1069 17.5293 45.3256C18.3107 44.5441 18.7497 43.4843 18.7497 42.3793C18.7497 41.2742 18.3107 40.2144 17.5293 39.433C16.7479 38.6516 15.6881 38.2126 14.583 38.2126Z" fill="#F2F2F2"/>
</svg>
