<svg width="18" height="22" viewBox="0 0 18 22" fill="none" xmlns="http://www.w3.org/2000/svg">
<path d="M1 5.80243H17M7 10.0803V16.4972M11 10.0803V16.4972M2 5.80243L3 18.6361C3 19.2034 3.21071 19.7475 3.58579 20.1486C3.96086 20.5497 4.46957 20.7751 5 20.7751H13C13.5304 20.7751 14.0391 20.5497 14.4142 20.1486C14.7893 19.7475 15 19.2034 15 18.6361L16 5.80243M6 5.80243V2.59401C6 2.31037 6.10536 2.03834 6.29289 1.83778C6.48043 1.63721 6.73478 1.52454 7 1.52454H11C11.2652 1.52454 11.5196 1.63721 11.7071 1.83778C11.8946 2.03834 12 2.31037 12 2.59401V5.80243" stroke="#696868" stroke-width="2" stroke-linecap="round" stroke-linejoin="round"/>
</svg>
