<svg width="94" height="63" viewBox="0 0 94 63" fill="none" xmlns="http://www.w3.org/2000/svg">
<rect width="92" height="63" rx="20" fill="#027888"/>
<path d="M58.7798 35.2757L58.7798 15.9424C58.7798 15.3014 59.0827 14.6868 59.6219 14.2335C60.161 13.7803 60.8923 13.5257 61.6548 13.5257H67.4048C68.1673 13.5257 68.8986 13.7803 69.4377 14.2335C69.9769 14.6868 70.2798 15.3014 70.2798 15.9424V32.859C70.2798 33.5 69.9769 34.1147 69.4377 34.5679C68.8986 35.0211 68.1673 35.2757 67.4048 35.2757H58.7798C55.7298 35.2757 52.8047 36.2942 50.6481 38.107C48.4914 39.9199 47.2798 42.3786 47.2798 44.9424V47.359C47.2798 48.6409 46.674 49.8703 45.5956 50.7767C44.5173 51.6832 43.0548 52.1924 41.5298 52.1924C40.0048 52.1924 38.5423 51.6832 37.4639 50.7767C36.3856 49.8703 35.7798 48.6409 35.7798 47.359V35.2757L27.1548 35.2757C25.6298 35.2757 24.1673 34.7665 23.0889 33.8601C22.0106 32.9536 21.4048 31.7243 21.4048 30.4424L24.2798 18.359C24.6933 16.8765 25.4776 15.6035 26.5147 14.7317C27.5517 13.86 28.7854 13.4367 30.0298 13.5257L50.1548 13.5257C52.4423 13.5257 54.6361 14.2896 56.2536 15.6492C57.8711 17.0088 58.7798 18.8529 58.7798 20.7757" fill="white"/>
<path d="M58.7798 35.2757L58.7798 15.9424C58.7798 15.3014 59.0827 14.6868 59.6219 14.2335C60.161 13.7803 60.8923 13.5257 61.6548 13.5257H67.4048C68.1673 13.5257 68.8986 13.7803 69.4377 14.2335C69.9769 14.6868 70.2798 15.3014 70.2798 15.9424V32.859C70.2798 33.5 69.9769 34.1147 69.4377 34.5679C68.8986 35.0211 68.1673 35.2757 67.4048 35.2757H58.7798ZM58.7798 35.2757C55.7298 35.2757 52.8047 36.2942 50.6481 38.107C48.4914 39.9199 47.2798 42.3786 47.2798 44.9424V47.359C47.2798 48.6409 46.674 49.8703 45.5956 50.7767C44.5173 51.6832 43.0548 52.1924 41.5298 52.1924C40.0048 52.1924 38.5423 51.6832 37.4639 50.7767C36.3856 49.8703 35.7798 48.6409 35.7798 47.359V35.2757L27.1548 35.2757C25.6298 35.2757 24.1673 34.7665 23.0889 33.8601C22.0106 32.9536 21.4048 31.7243 21.4048 30.4424L24.2798 18.359C24.6933 16.8765 25.4776 15.6035 26.5147 14.7317C27.5517 13.86 28.7854 13.4367 30.0298 13.5257L50.1548 13.5257C52.4423 13.5257 54.6361 14.2896 56.2536 15.6492C57.8711 17.0088 58.7798 18.8529 58.7798 20.7757" stroke="#024852" stroke-width="2" stroke-linecap="round" stroke-linejoin="round"/>
</svg>
