<svg width="92" height="63" viewBox="0 0 92 63" fill="none" xmlns="http://www.w3.org/2000/svg">
<rect width="92" height="63" rx="20" fill="#027888"/>
<path d="M32.9048 26.4308V45.7642C32.9048 46.4051 32.6019 47.0198 32.0627 47.473C31.5235 47.9262 30.7923 48.1808 30.0298 48.1808H24.2798C23.5173 48.1808 22.786 47.9262 22.2469 47.473C21.7077 47.0198 21.4048 46.4051 21.4048 45.7642V28.8475C21.4048 28.2066 21.7077 27.5919 22.2469 27.1387C22.786 26.6854 23.5173 26.4308 24.2798 26.4308H32.9048C35.9548 26.4308 38.8798 25.4124 41.0365 23.5995C43.1932 21.7867 44.4048 19.3279 44.4048 16.7642V14.3475C44.4048 13.0656 45.0106 11.8362 46.0889 10.9298C47.1673 10.0234 48.6298 9.51416 50.1548 9.51416C51.6798 9.51416 53.1423 10.0234 54.2206 10.9298C55.299 11.8362 55.9048 13.0656 55.9048 14.3475V26.4308H64.5298C66.0548 26.4308 67.5173 26.9401 68.5956 27.8465C69.674 28.7529 70.2798 29.9823 70.2798 31.2642L67.4048 43.3475C66.9913 44.8301 66.207 46.1031 65.1699 46.9748C64.1328 47.8466 62.8992 48.2698 61.6548 48.1808H41.5298C39.2423 48.1808 37.0485 47.417 35.431 46.0574C33.8135 44.6977 32.9048 42.8536 32.9048 40.9308" fill="white"/>
<path d="M32.9048 26.4308V45.7642C32.9048 46.4051 32.6019 47.0198 32.0627 47.473C31.5235 47.9262 30.7923 48.1808 30.0298 48.1808H24.2798C23.5173 48.1808 22.786 47.9262 22.2469 47.473C21.7077 47.0198 21.4048 46.4051 21.4048 45.7642V28.8475C21.4048 28.2066 21.7077 27.5919 22.2469 27.1387C22.786 26.6854 23.5173 26.4308 24.2798 26.4308H32.9048ZM32.9048 26.4308C35.9548 26.4308 38.8798 25.4124 41.0365 23.5995C43.1932 21.7867 44.4048 19.3279 44.4048 16.7642V14.3475C44.4048 13.0656 45.0106 11.8362 46.0889 10.9298C47.1673 10.0234 48.6298 9.51416 50.1548 9.51416C51.6798 9.51416 53.1423 10.0234 54.2206 10.9298C55.299 11.8362 55.9048 13.0656 55.9048 14.3475V26.4308H64.5298C66.0548 26.4308 67.5173 26.9401 68.5956 27.8465C69.674 28.7529 70.2798 29.9823 70.2798 31.2642L67.4048 43.3475C66.9913 44.8301 66.207 46.1031 65.1699 46.9748C64.1328 47.8466 62.8992 48.2698 61.6548 48.1808H41.5298C39.2423 48.1808 37.0485 47.417 35.431 46.0574C33.8135 44.6977 32.9048 42.8536 32.9048 40.9308" stroke="#024852" stroke-width="2" stroke-linecap="round" stroke-linejoin="round"/>
</svg>
