<svg width="34" height="34" viewBox="0 0 34 34" fill="none" xmlns="http://www.w3.org/2000/svg">
<path d="M17.85 13.5303C19.1109 13.3172 20.2457 12.6381 21.0295 11.6278C21.8134 10.6174 22.1891 9.34941 22.0821 8.07512C21.9752 6.80082 21.3934 5.6132 20.4522 4.74761C19.5109 3.88201 18.2788 3.40161 17 3.40161C15.7212 3.40161 14.4891 3.88201 13.5478 4.74761C12.6066 5.6132 12.0248 6.80082 11.9179 8.07512C11.8109 9.34941 12.1866 10.6174 12.9705 11.6278C13.7543 12.6381 14.8891 13.3172 16.15 13.5303V18.7H12.75C12.0737 18.7 11.4251 18.9686 10.9469 19.4469C10.4687 19.9251 10.2 20.5737 10.2 21.25V22.1H23.8V21.25C23.8 20.5737 23.5313 19.9251 23.0531 19.4469C22.5749 18.9686 21.9263 18.7 21.25 18.7H17.85V13.5303ZM5.1 27.2C5.1 26.2982 5.45821 25.4334 6.09584 24.7958C6.73346 24.1582 7.59826 23.8 8.5 23.8H25.5C26.4017 23.8 27.2665 24.1582 27.9042 24.7958C28.5418 25.4334 28.9 26.2982 28.9 27.2V29.75C28.9 29.9754 28.8104 30.1916 28.651 30.351C28.4916 30.5104 28.2754 30.6 28.05 30.6H5.95C5.72457 30.6 5.50837 30.5104 5.34896 30.351C5.18955 30.1916 5.1 29.9754 5.1 29.75V27.2Z" fill="#FFC107"/>
</svg>
