<svg width="34" height="34" viewBox="0 0 34 34" fill="none" xmlns="http://www.w3.org/2000/svg">
<path d="M5.3125 8.76562V30.5469C5.3125 30.8991 5.45243 31.2369 5.7015 31.486C5.95057 31.7351 6.28838 31.875 6.64062 31.875H32.6719C33.0241 31.875 33.3619 31.7351 33.611 31.486C33.8601 31.2369 34 30.8991 34 30.5469V8.76562C34 8.41338 33.8601 8.07557 33.611 7.8265C33.3619 7.57743 33.0241 7.4375 32.6719 7.4375H6.64062C6.28838 7.4375 5.95057 7.57743 5.7015 7.8265C5.45243 8.07557 5.3125 8.41338 5.3125 8.76562ZM24.7788 11.5102C25.3822 11.5139 25.9709 11.6961 26.4708 12.034C26.9707 12.3719 27.3593 12.8502 27.5877 13.4087C27.8161 13.9672 27.8739 14.5808 27.7539 15.1721C27.634 15.7635 27.3416 16.306 26.9137 16.7314C26.4857 17.1567 25.9414 17.4458 25.3494 17.5622C24.7573 17.6785 24.1441 17.617 23.587 17.3852C23.0299 17.1535 22.5539 16.762 22.2191 16.26C21.8843 15.7581 21.7056 15.1682 21.7055 14.5649C21.7089 13.7525 22.0343 12.9747 22.6105 12.402C23.1867 11.8293 23.9665 11.5086 24.7788 11.5102ZM7.41957 29.8383V23.4979L15.5716 16.1799L21.7992 22.3789L14.2953 29.8383H7.41957ZM31.875 29.8383H17.1992L26.8002 20.2758L31.875 24.6095V29.8383Z" fill="#FAB005"/>
<path d="M1.32812 2.125C0.975884 2.125 0.638071 2.26493 0.388999 2.514C0.139927 2.76307 0 3.10088 0 3.45312L0 26.2969C0 26.6491 0.139927 26.9869 0.388999 27.236C0.638071 27.4851 0.975884 27.625 1.32812 27.625H3.1875V6.64062C3.1875 6.28838 3.32743 5.95057 3.5765 5.7015C3.82557 5.45243 4.16338 5.3125 4.51562 5.3125H29.75V3.45312C29.75 3.10088 29.6101 2.76307 29.361 2.514C29.1119 2.26493 28.7741 2.125 28.4219 2.125H1.32812Z" fill="#FAB005"/>
</svg>
