<svg width="50" height="50" viewBox="0 0 50 50" fill="none" xmlns="http://www.w3.org/2000/svg">
<path d="M35.4168 37.5001C33.1043 37.5001 31.2502 39.3542 31.2502 41.6667C31.2502 42.7718 31.6891 43.8316 32.4706 44.613C33.252 45.3944 34.3118 45.8334 35.4168 45.8334C36.5219 45.8334 37.5817 45.3944 38.3631 44.613C39.1445 43.8316 39.5835 42.7718 39.5835 41.6667C39.5835 40.5617 39.1445 39.5019 38.3631 38.7205C37.5817 37.9391 36.5219 37.5001 35.4168 37.5001ZM2.0835 4.16675V8.33341H6.25016L13.7502 24.1459L10.9168 29.2501C10.6043 29.8334 10.4168 30.5209 10.4168 31.2501C10.4168 32.3551 10.8558 33.415 11.6372 34.1964C12.4186 34.9778 13.4784 35.4167 14.5835 35.4167H39.5835V31.2501H15.4585C15.3204 31.2501 15.1879 31.1952 15.0902 31.0975C14.9925 30.9999 14.9377 30.8674 14.9377 30.7292C14.9377 30.6251 14.9585 30.5417 15.0002 30.4792L16.8752 27.0834H32.396C33.9585 27.0834 35.3335 26.2084 36.0418 24.9376L43.5002 11.4584C43.646 11.1251 43.7502 10.7709 43.7502 10.4167C43.7502 9.86421 43.5307 9.33431 43.14 8.94361C42.7493 8.55291 42.2194 8.33341 41.6668 8.33341H10.8543L8.896 4.16675M14.5835 37.5001C12.271 37.5001 10.4168 39.3542 10.4168 41.6667C10.4168 42.7718 10.8558 43.8316 11.6372 44.613C12.4186 45.3944 13.4784 45.8334 14.5835 45.8334C15.6886 45.8334 16.7484 45.3944 17.5298 44.613C18.3112 43.8316 18.7502 42.7718 18.7502 41.6667C18.7502 40.5617 18.3112 39.5019 17.5298 38.7205C16.7484 37.9391 15.6886 37.5001 14.5835 37.5001Z" fill="#F2F2F2"/>
</svg>
