<svg width="48" height="36" viewBox="0 0 48 36" fill="none" xmlns="http://www.w3.org/2000/svg">
<path d="M2.66667 35.3921H45.3333C46.8 35.3921 48 34.0796 48 32.4754C48 30.8713 46.8 29.5588 45.3333 29.5588H2.66667C1.2 29.5588 0 30.8713 0 32.4754C0 34.0796 1.2 35.3921 2.66667 35.3921ZM2.66667 20.8088H45.3333C46.8 20.8088 48 19.4963 48 17.8921C48 16.2879 46.8 14.9754 45.3333 14.9754H2.66667C1.2 14.9754 0 16.2879 0 17.8921C0 19.4963 1.2 20.8088 2.66667 20.8088ZM0 3.30876C0 4.91292 1.2 6.22542 2.66667 6.22542H45.3333C46.8 6.22542 48 4.91292 48 3.30876C48 1.70459 46.8 0.39209 45.3333 0.39209H2.66667C1.2 0.39209 0 1.70459 0 3.30876Z" fill="#F2F2F2"/>
</svg>
