<svg width="30" height="29" viewBox="0 0 30 29" fill="none" xmlns="http://www.w3.org/2000/svg">
<g clip-path="url(#clip0_876_976)">
<rect width="30" height="29" fill="#0298AB"/>
<path d="M26.2073 0.90625L19.1897 4.41797L12.6858 1.69922L3.79266 2.26562L0.9375 26.3945L10.132 25.6392L20.3372 28.0938L29.0625 25.0352L26.2073 0.90625ZM25.4306 2.31502L28.0472 24.4271L20.5172 27.0665L20.4755 26.2174L27.1181 23.7931L24.8484 3.58694L19.4836 6.0465L19.447 5.30972L19.6209 5.22317L25.4306 2.31502ZM19.9758 16.0628C20.0798 15.849 20.182 15.5485 20.2308 15.1271C20.2308 15.1271 20.7473 15.1516 21.383 16.4906C21.383 16.4906 21.6605 16.4638 21.5222 15.5898C21.5222 15.5898 22.5145 15.2032 21.9792 13.5036C21.9792 13.5036 22.8117 14.6119 22.5352 13.171C22.5352 13.171 23.4483 12.0889 22.3575 11.3694C22.3575 11.3694 22.395 10.5714 23.0508 10.6738C23.0508 10.6738 23.7061 9.02625 23.3902 10.9824C23.3902 10.9824 23.4089 11.3694 23.8256 11.8057C23.8256 11.8057 24.0052 11.1627 23.6869 10.4695C23.6869 10.4695 24.3427 9.28317 24.2827 8.25503C24.2827 8.25503 22.1583 9.01673 19.7944 8.78927C19.7944 8.78927 19.9097 8.36423 19.5867 8.12544L19.5206 6.78192L19.5769 6.75609L24.2569 4.611L26.3606 23.3436L20.4408 25.5046L19.9758 16.0628ZM19.1142 8.09055C18.87 8.42722 18.1922 9.46261 18.6042 10.0825C18.6042 10.0825 18.4045 11.4251 18.1261 9.46669C18.1261 9.46669 17.6709 10.6226 17.055 10.3648C17.055 10.3648 16.8858 11.5347 16.4981 10.7508C16.4981 10.7508 16.8155 10.88 16.8853 10.5197C16.8853 10.5197 15.9905 9.59311 15.4556 10.9942C15.4556 10.9942 15.0188 11.1623 15.188 11.8193C15.188 11.8193 15.4945 11.2774 15.6539 12.1025C15.6539 12.1025 15.8231 11.9738 15.8939 10.9176C15.8939 10.9176 16.3186 10.7128 15.9905 11.5474C15.9905 11.5474 16.9636 11.5624 15.4556 12.3966C15.4556 12.3966 15.3722 12.383 15.3066 12.0631C15.3066 12.0631 15.0783 12.8334 14.6105 13.1066C14.6105 13.1066 14.7202 13.4143 14.3733 13.5557C14.3733 13.5557 14.1853 14.0324 14.6325 14.0324C14.6325 14.0324 15.0192 12.8869 15.7542 13.7881C15.7542 13.7881 15.8944 13.7369 15.6755 13.2861C15.6755 13.2861 16.0617 13.4293 16.2113 14.0197C16.2113 14.0197 16.4498 13.9798 16.4878 13.4664C16.4878 13.4664 16.7873 12.8103 17.2744 13.5829C17.2744 13.5829 16.628 13.4021 16.4602 14.0324C16.4602 14.0324 16.7658 13.9032 16.9561 14.084C16.9561 14.084 16.9753 14.3781 16.7803 14.4918C16.8647 14.645 16.9561 14.7918 17.0836 14.916C17.1191 14.9479 17.1421 14.9908 17.1487 15.0373C17.1553 15.0838 17.145 15.1311 17.1197 15.1711C17.4637 15.7402 18.0994 16.4978 18.5442 15.2884C18.5442 15.2884 17.9489 15.6151 17.7497 14.7139C17.7497 14.7139 18.9511 14.8616 19.5052 16.0266L19.9716 25.5186L10.6284 22.9857L10.7686 21.6458C10.9627 22.1265 11.19 22.3218 11.19 22.3218C10.9261 20.2307 12.487 18.8908 12.487 18.8908C12.7903 17.4553 12.0192 16.8109 11.3044 16.5209L11.6714 13.0101C11.8186 12.833 11.9053 12.7147 11.9053 12.7147C11.8523 12.5384 11.8008 12.3839 11.7516 12.2425L12.1073 8.83594C12.4064 9.18802 12.4406 9.50792 12.3567 9.79883C11.9719 11.1369 12.4669 11.547 12.4669 11.547C12.7673 10.4169 13.7986 10.2365 13.7986 10.2365C13.7395 9.17986 14.3742 7.97862 14.3742 7.97862C13.6838 6.83177 12.6961 7.60525 12.1786 8.15263L12.2189 7.76792C12.3248 7.63606 12.4355 7.49242 12.555 7.32839C12.555 7.32839 12.4561 7.26269 12.2766 7.21466L12.5916 4.19911L19.0059 6.76923L19.0509 6.78736L19.1142 8.09055ZM11.8102 7.16844C11.4905 7.18294 11.0813 7.28942 10.5998 7.61114C10.5998 7.61114 10.3711 9.64205 11.6845 8.36922L11.5378 9.77436C11.3663 9.21973 10.9594 9.0267 10.9594 9.0267C10.5609 9.25961 10.6008 9.56773 10.6008 9.56773C10.9622 9.6203 11.183 10.0408 11.3128 10.435C11.2397 10.5433 11.1145 10.667 10.8984 10.6874C10.8984 10.6874 11.1502 11.0531 11.3939 11.1555L11.3672 11.4074C10.8 10.5859 10.5544 12.2366 10.5544 12.2366C9.15234 10.7264 10.9266 9.97056 10.9266 9.97056C9.84047 9.52695 9.3375 8.25548 9.3375 8.25548C9.28453 9.04528 8.96625 9.01039 8.96625 9.01039C6.47719 7.60389 6.02906 9.86906 6.02906 9.86906C6.42422 11.0689 5.57719 11.2062 5.57719 11.2062C6.3975 11.3431 6.82078 10.2452 6.82078 10.2452C8.51672 11.0689 7.61625 14.0201 7.61625 14.0201C8.27766 14.3962 8.46328 15.6328 8.46328 15.6328C8.92406 15.7678 9.39609 16.0406 9.72703 16.2568C9.79125 16.201 9.85734 16.148 9.92672 16.0986C9.15328 15.5703 9.15188 14.7148 9.15188 14.7148C9.85359 14.7148 10.5998 14.1302 11.1384 13.5928L10.8478 16.3764C10.717 16.3446 10.5845 16.32 10.4508 16.3025C10.3258 16.3605 10.2084 16.4326 10.1011 16.5173L10.1583 16.5604C9.37828 18.009 10.433 18.5899 10.6078 18.6737L10.1602 22.9558L3.95578 23.4247L6.02531 4.47778L12.1275 4.13069L11.8102 7.16844ZM10.5567 23.6726L20.0063 26.2346L20.0484 27.0905L10.4409 24.7796L10.5567 23.6726ZM18.9778 5.31697L19.0134 6.03744L12.6656 3.49405L12.7472 2.71195L18.8175 5.24991L18.9778 5.31697ZM4.63547 3.12022L12.2841 2.63311L12.1992 3.44602L5.38875 3.83298L3.16828 24.1665L10.0894 23.6423L9.97406 24.7424L1.99922 25.3981L4.63547 3.12022Z" fill="#F2F2F2"/>
<path d="M15.029 16.5921C15.029 16.5921 16.0237 16.772 15.6257 18.6248C15.6257 18.6248 15.7846 20.0689 16.657 19.937C16.657 19.937 16.8951 17.8531 18.0074 16.2568C18.0074 16.2568 17.5565 16.6908 17.0451 15.2513C16.9678 15.3056 16.8628 15.3183 16.7751 15.234C16.5548 15.0215 16.4217 14.7537 16.2782 14.4846C16.2579 14.4459 16.2496 14.4023 16.2543 14.3591C15.5306 14.0981 14.0648 13.8362 13.8571 15.8965C13.8576 15.8965 14.1346 17.3148 15.029 16.5921ZM14.5734 11.779C14.6418 12.707 14.7703 12.9888 14.9385 12.6032C15.1078 12.2208 14.5734 11.779 14.5734 11.779ZM14.2729 12.6549C14.2729 12.6549 14.5528 12.615 14.4726 12.2747C14.4726 12.2747 14.2729 12.2946 14.2729 12.6549ZM14.1651 10.7893C14.1651 10.7893 13.4596 10.7893 13.709 11.1378C13.957 11.4853 14.1651 10.7893 14.1651 10.7893ZM17.6906 19.2433C17.6906 19.2433 17.9062 18.8183 17.8992 18.1631C17.8996 18.1631 17.2134 18.9207 17.6906 19.2433ZM22.1371 16.5798C22.1371 16.5798 21.6403 17.018 21.7312 17.4172C21.8207 17.8178 22.2567 17.3384 22.1371 16.5798ZM24.1242 17.9968C24.3421 17.6279 22.9303 17.1712 22.9303 17.1712C23.2092 17.5708 23.9264 18.3257 24.1242 17.9968ZM22.5449 18.0756C22.8764 17.5273 21.5418 17.7897 21.5418 17.7897C21.5418 17.7897 22.416 18.2922 22.5449 18.0756ZM23.0695 18.1898C23.0695 18.1898 22.8023 18.7675 21.8095 19.0108C21.8095 19.0108 22.019 19.4753 21.8095 20.3512C21.8095 20.3512 22.8117 19.1151 23.3892 20.9031C23.3892 20.9031 23.8846 21.1632 24.232 19.5442C24.232 19.5442 23.8153 18.961 23.6765 18.1318C23.677 18.1313 23.5392 19.1939 23.0695 18.1898ZM23.2654 12.9186C23.3287 12.8674 23.3779 12.8488 23.3779 12.8488C22.8918 12.0889 23.0695 13.1841 23.0695 13.1841C23.1009 13.1121 23.1379 13.0568 23.1759 13.0101C23.2017 13.3346 23.121 13.818 22.597 14.2775C22.5965 14.2775 23.7206 13.8679 23.2654 12.9186ZM14.6868 7.2296C14.932 6.67407 14.1614 6.0415 14.1614 6.0415C14.2603 7.37686 14.4435 7.78468 14.6868 7.2296ZM13.7287 7.30255C13.7287 7.30255 14.1276 7.24546 14.0146 6.75699C14.0146 6.75699 13.7287 6.78463 13.7287 7.30255Z" fill="#F2F2F2"/>
</g>
<defs>
<clipPath id="clip0_876_976">
<rect width="30" height="29" fill="white"/>
</clipPath>
</defs>
</svg>
