<svg width="194" height="71" viewBox="0 0 194 71" fill="none" xmlns="http://www.w3.org/2000/svg">
<g filter="url(#filter0_d_795_1033)">
<rect x="4" width="186" height="63" rx="20" fill="#027888"/>
<path d="M22.28 25C22.9733 25 23.62 25.2 24.22 25.6C24.8333 26 25.3267 26.54 25.7 27.22C26.0733 27.9 26.26 28.66 26.26 29.5C26.26 30.3267 26.0733 31.08 25.7 31.76C25.3267 32.44 24.8333 32.9867 24.22 33.4C23.62 33.8 22.9733 34 22.28 34H18.6L18.8 33.64V37.78C18.8 38.1267 18.6933 38.42 18.48 38.66C18.2667 38.8867 17.9867 39 17.64 39C17.3067 39 17.0333 38.8867 16.82 38.66C16.6067 38.42 16.5 38.1267 16.5 37.78V26.22C16.5 25.8733 16.6133 25.5867 16.84 25.36C17.08 25.12 17.3733 25 17.72 25H22.28ZM22.28 31.72C22.5333 31.72 22.78 31.6133 23.02 31.4C23.26 31.1867 23.46 30.9133 23.62 30.58C23.78 30.2333 23.86 29.8733 23.86 29.5C23.86 29.1133 23.78 28.7533 23.62 28.42C23.46 28.0867 23.26 27.82 23.02 27.62C22.78 27.4067 22.5333 27.3 22.28 27.3H18.56L18.8 26.94V32.04L18.58 31.72H22.28ZM37.1931 28.3C37.5398 28.3 37.8265 28.42 38.0531 28.66C38.2798 28.8867 38.3931 29.1733 38.3931 29.52V34.6C38.3931 36.0133 37.9998 37.1333 37.2131 37.96C36.4265 38.7867 35.2931 39.2 33.8131 39.2C32.3331 39.2 31.1998 38.7867 30.4131 37.96C29.6398 37.1333 29.2531 36.0133 29.2531 34.6V29.52C29.2531 29.1733 29.3665 28.8867 29.5931 28.66C29.8198 28.42 30.1065 28.3 30.4531 28.3C30.7998 28.3 31.0865 28.42 31.3131 28.66C31.5398 28.8867 31.6531 29.1733 31.6531 29.52V34.6C31.6531 35.4133 31.8331 36.02 32.1931 36.42C32.5531 36.8067 33.0931 37 33.8131 37C34.5465 37 35.0931 36.8067 35.4531 36.42C35.8131 36.02 35.9931 35.4133 35.9931 34.6V29.52C35.9931 29.1733 36.1065 28.8867 36.3331 28.66C36.5598 28.42 36.8465 28.3 37.1931 28.3ZM47.5314 28.1C48.4647 28.1 49.2981 28.34 50.0314 28.82C50.7781 29.2867 51.3647 29.9333 51.7914 30.76C52.2314 31.5867 52.4514 32.5467 52.4514 33.64C52.4514 34.7333 52.2314 35.7 51.7914 36.54C51.3647 37.3667 50.7847 38.02 50.0514 38.5C49.3314 38.9667 48.5181 39.2 47.6114 39.2C47.0781 39.2 46.5781 39.1133 46.1114 38.94C45.6447 38.7667 45.2314 38.5467 44.8714 38.28C44.5247 38.0133 44.2514 37.7467 44.0514 37.48C43.8647 37.2 43.7714 36.9667 43.7714 36.78L44.3914 36.52V37.98C44.3914 38.3267 44.2781 38.62 44.0514 38.86C43.8247 39.0867 43.5381 39.2 43.1914 39.2C42.8447 39.2 42.5581 39.0867 42.3314 38.86C42.1047 38.6333 41.9914 38.34 41.9914 37.98V25.42C41.9914 25.0733 42.1047 24.7867 42.3314 24.56C42.5581 24.32 42.8447 24.2 43.1914 24.2C43.5381 24.2 43.8247 24.32 44.0514 24.56C44.2781 24.7867 44.3914 25.0733 44.3914 25.42V30.5L44.0514 30.32C44.0514 30.1467 44.1447 29.94 44.3314 29.7C44.5181 29.4467 44.7714 29.2 45.0914 28.96C45.4114 28.7067 45.7781 28.5 46.1914 28.34C46.6181 28.18 47.0647 28.1 47.5314 28.1ZM47.2314 30.3C46.6447 30.3 46.1314 30.4467 45.6914 30.74C45.2514 31.0333 44.9047 31.4333 44.6514 31.94C44.4114 32.4333 44.2914 33 44.2914 33.64C44.2914 34.2667 44.4114 34.84 44.6514 35.36C44.9047 35.8667 45.2514 36.2667 45.6914 36.56C46.1314 36.8533 46.6447 37 47.2314 37C47.8181 37 48.3247 36.8533 48.7514 36.56C49.1914 36.2667 49.5314 35.8667 49.7714 35.36C50.0247 34.84 50.1514 34.2667 50.1514 33.64C50.1514 33 50.0247 32.4333 49.7714 31.94C49.5314 31.4333 49.1914 31.0333 48.7514 30.74C48.3247 30.4467 47.8181 30.3 47.2314 30.3ZM58.15 37.78C58.15 38.1267 58.03 38.42 57.79 38.66C57.5633 38.8867 57.2767 39 56.93 39C56.5967 39 56.3167 38.8867 56.09 38.66C55.8633 38.42 55.75 38.1267 55.75 37.78V25.42C55.75 25.0733 55.8633 24.7867 56.09 24.56C56.33 24.32 56.6233 24.2 56.97 24.2C57.3167 24.2 57.5967 24.32 57.81 24.56C58.0367 24.7867 58.15 25.0733 58.15 25.42V37.78ZM64.2006 37.78C64.2006 38.1267 64.0873 38.42 63.8606 38.66C63.634 38.8867 63.3473 39 63.0006 39C62.654 39 62.3673 38.8867 62.1406 38.66C61.914 38.42 61.8006 38.1267 61.8006 37.78V29.52C61.8006 29.1733 61.914 28.8867 62.1406 28.66C62.3673 28.42 62.654 28.3 63.0006 28.3C63.3473 28.3 63.634 28.42 63.8606 28.66C64.0873 28.8867 64.2006 29.1733 64.2006 29.52V37.78ZM62.9806 27C62.5273 27 62.2073 26.9267 62.0206 26.78C61.834 26.6333 61.7406 26.3733 61.7406 26V25.62C61.7406 25.2333 61.8406 24.9733 62.0406 24.84C62.254 24.6933 62.574 24.62 63.0006 24.62C63.4673 24.62 63.794 24.6933 63.9806 24.84C64.1673 24.9867 64.2606 25.2467 64.2606 25.62V26C64.2606 26.3867 64.1606 26.6533 63.9606 26.8C63.7606 26.9333 63.434 27 62.9806 27ZM72.4272 28.1C73.1872 28.1 73.8472 28.18 74.4072 28.34C74.9805 28.5 75.4205 28.7267 75.7272 29.02C76.0472 29.3 76.2072 29.64 76.2072 30.04C76.2072 30.3067 76.1272 30.56 75.9672 30.8C75.8072 31.0267 75.5739 31.14 75.2672 31.14C75.0539 31.14 74.8739 31.1133 74.7272 31.06C74.5939 30.9933 74.4739 30.9133 74.3672 30.82C74.2605 30.7267 74.1339 30.64 73.9872 30.56C73.8539 30.48 73.6472 30.42 73.3672 30.38C73.1005 30.3267 72.9005 30.3 72.7672 30.3C72.0872 30.3 71.5072 30.4467 71.0272 30.74C70.5605 31.0333 70.2005 31.4333 69.9472 31.94C69.6939 32.4333 69.5672 33.0067 69.5672 33.66C69.5672 34.3 69.6939 34.8733 69.9472 35.38C70.2139 35.8733 70.5739 36.2667 71.0272 36.56C71.4939 36.8533 72.0272 37 72.6272 37C72.9605 37 73.2472 36.98 73.4872 36.94C73.7272 36.9 73.9272 36.84 74.0872 36.76C74.2739 36.6533 74.4405 36.54 74.5872 36.42C74.7339 36.3 74.9539 36.24 75.2472 36.24C75.5939 36.24 75.8605 36.3533 76.0472 36.58C76.2339 36.7933 76.3272 37.06 76.3272 37.38C76.3272 37.7133 76.1405 38.02 75.7672 38.3C75.3939 38.5667 74.9005 38.7867 74.2872 38.96C73.6872 39.12 73.0339 39.2 72.3272 39.2C71.2739 39.2 70.3605 38.96 69.5872 38.48C68.8139 37.9867 68.2139 37.32 67.7872 36.48C67.3739 35.64 67.1672 34.7 67.1672 33.66C67.1672 32.5667 67.3872 31.6067 67.8272 30.78C68.2805 29.94 68.9005 29.2867 69.6872 28.82C70.4872 28.34 71.4005 28.1 72.4272 28.1ZM87.8178 28.1C88.1645 28.1 88.4511 28.2133 88.6778 28.44C88.9045 28.6667 89.0178 28.96 89.0178 29.32V37.78C89.0178 38.1267 88.9045 38.42 88.6778 38.66C88.4511 38.8867 88.1645 39 87.8178 39C87.4711 39 87.1845 38.8867 86.9578 38.66C86.7311 38.42 86.6178 38.1267 86.6178 37.78V36.8L87.0578 36.98C87.0578 37.1533 86.9645 37.3667 86.7778 37.62C86.5911 37.86 86.3378 38.1 86.0178 38.34C85.6978 38.58 85.3178 38.7867 84.8778 38.96C84.4511 39.12 83.9845 39.2 83.4778 39.2C82.5578 39.2 81.7245 38.9667 80.9778 38.5C80.2311 38.02 79.6378 37.3667 79.1978 36.54C78.7711 35.7 78.5578 34.74 78.5578 33.66C78.5578 32.5667 78.7711 31.6067 79.1978 30.78C79.6378 29.94 80.2245 29.2867 80.9578 28.82C81.6911 28.34 82.5045 28.1 83.3978 28.1C83.9711 28.1 84.4978 28.1867 84.9778 28.36C85.4578 28.5333 85.8711 28.7533 86.2178 29.02C86.5778 29.2867 86.8511 29.56 87.0378 29.84C87.2378 30.1067 87.3378 30.3333 87.3378 30.52L86.6178 30.78V29.32C86.6178 28.9733 86.7311 28.6867 86.9578 28.46C87.1845 28.22 87.4711 28.1 87.8178 28.1ZM83.7778 37C84.3645 37 84.8778 36.8533 85.3178 36.56C85.7578 36.2667 86.0978 35.8667 86.3378 35.36C86.5911 34.8533 86.7178 34.2867 86.7178 33.66C86.7178 33.02 86.5911 32.4467 86.3378 31.94C86.0978 31.4333 85.7578 31.0333 85.3178 30.74C84.8778 30.4467 84.3645 30.3 83.7778 30.3C83.2045 30.3 82.6978 30.4467 82.2578 30.74C81.8178 31.0333 81.4711 31.4333 81.2178 31.94C80.9778 32.4467 80.8578 33.02 80.8578 33.66C80.8578 34.2867 80.9778 34.8533 81.2178 35.36C81.4711 35.8667 81.8178 36.2667 82.2578 36.56C82.6978 36.8533 83.2045 37 83.7778 37ZM93.8164 39C93.4697 39 93.1831 38.8867 92.9564 38.66C92.7297 38.42 92.6164 38.1267 92.6164 37.78V29.52C92.6164 29.1733 92.7297 28.8867 92.9564 28.66C93.1831 28.42 93.4697 28.3 93.8164 28.3C94.1631 28.3 94.4497 28.42 94.6764 28.66C94.9031 28.8867 95.0164 29.1733 95.0164 29.52V31.4L94.8764 30.06C95.0231 29.74 95.2097 29.46 95.4364 29.22C95.6764 28.9667 95.9431 28.76 96.2364 28.6C96.5297 28.4267 96.8431 28.3 97.1764 28.22C97.5097 28.14 97.8431 28.1 98.1764 28.1C98.5764 28.1 98.9097 28.2133 99.1764 28.44C99.4564 28.6667 99.5964 28.9333 99.5964 29.24C99.5964 29.68 99.4831 30 99.2564 30.2C99.0297 30.3867 98.7831 30.48 98.5164 30.48C98.2631 30.48 98.0297 30.4333 97.8164 30.34C97.6164 30.2467 97.3831 30.2 97.1164 30.2C96.8764 30.2 96.6297 30.26 96.3764 30.38C96.1364 30.4867 95.9097 30.66 95.6964 30.9C95.4964 31.14 95.3297 31.44 95.1964 31.8C95.0764 32.1467 95.0164 32.56 95.0164 33.04V37.78C95.0164 38.1267 94.9031 38.42 94.6764 38.66C94.4497 38.8867 94.1631 39 93.8164 39ZM110.094 39C109.747 39 109.46 38.8867 109.234 38.66C109.007 38.42 108.894 38.1267 108.894 37.78V29.52C108.894 29.1733 109.007 28.8867 109.234 28.66C109.46 28.42 109.747 28.3 110.094 28.3C110.44 28.3 110.727 28.42 110.954 28.66C111.18 28.8867 111.294 29.1733 111.294 29.52V31.4L111.154 30.06C111.3 29.74 111.487 29.46 111.714 29.22C111.954 28.9667 112.22 28.76 112.514 28.6C112.807 28.4267 113.12 28.3 113.454 28.22C113.787 28.14 114.12 28.1 114.454 28.1C114.854 28.1 115.187 28.2133 115.454 28.44C115.734 28.6667 115.874 28.9333 115.874 29.24C115.874 29.68 115.76 30 115.534 30.2C115.307 30.3867 115.06 30.48 114.794 30.48C114.54 30.48 114.307 30.4333 114.094 30.34C113.894 30.2467 113.66 30.2 113.394 30.2C113.154 30.2 112.907 30.26 112.654 30.38C112.414 30.4867 112.187 30.66 111.974 30.9C111.774 31.14 111.607 31.44 111.474 31.8C111.354 32.1467 111.294 32.56 111.294 33.04V37.78C111.294 38.1267 111.18 38.42 110.954 38.66C110.727 38.8867 110.44 39 110.094 39ZM123.156 39.2C122.023 39.2 121.036 38.9667 120.196 38.5C119.37 38.02 118.73 37.3733 118.276 36.56C117.836 35.7467 117.616 34.8267 117.616 33.8C117.616 32.6 117.856 31.58 118.336 30.74C118.83 29.8867 119.47 29.2333 120.256 28.78C121.043 28.3267 121.876 28.1 122.756 28.1C123.436 28.1 124.076 28.24 124.676 28.52C125.29 28.8 125.83 29.1867 126.296 29.68C126.763 30.16 127.13 30.72 127.396 31.36C127.676 32 127.816 32.68 127.816 33.4C127.803 33.72 127.676 33.98 127.436 34.18C127.196 34.38 126.916 34.48 126.596 34.48H118.956L118.356 32.48H125.696L125.256 32.88V32.34C125.23 31.9533 125.09 31.6067 124.836 31.3C124.596 30.9933 124.29 30.7533 123.916 30.58C123.556 30.3933 123.17 30.3 122.756 30.3C122.356 30.3 121.983 30.3533 121.636 30.46C121.29 30.5667 120.99 30.7467 120.736 31C120.483 31.2533 120.283 31.5933 120.136 32.02C119.99 32.4467 119.916 32.9867 119.916 33.64C119.916 34.36 120.063 34.9733 120.356 35.48C120.663 35.9733 121.05 36.3533 121.516 36.62C121.996 36.8733 122.503 37 123.036 37C123.53 37 123.923 36.96 124.216 36.88C124.51 36.8 124.743 36.7067 124.916 36.6C125.103 36.48 125.27 36.38 125.416 36.3C125.656 36.18 125.883 36.12 126.096 36.12C126.39 36.12 126.63 36.22 126.816 36.42C127.016 36.62 127.116 36.8533 127.116 37.12C127.116 37.48 126.93 37.8067 126.556 38.1C126.21 38.3933 125.723 38.6533 125.096 38.88C124.47 39.0933 123.823 39.2 123.156 39.2ZM130.293 37.34C130.16 37.1533 130.1 36.9133 130.113 36.62C130.127 36.3267 130.3 36.0733 130.633 35.86C130.847 35.7267 131.073 35.6733 131.313 35.7C131.553 35.7133 131.787 35.8333 132.013 36.06C132.4 36.4467 132.807 36.7467 133.233 36.96C133.66 37.1733 134.193 37.28 134.833 37.28C135.033 37.2667 135.253 37.24 135.493 37.2C135.733 37.1467 135.94 37.04 136.113 36.88C136.3 36.7067 136.393 36.4467 136.393 36.1C136.393 35.8067 136.293 35.5733 136.093 35.4C135.893 35.2267 135.627 35.08 135.293 34.96C134.973 34.84 134.613 34.7267 134.213 34.62C133.8 34.5 133.373 34.3667 132.933 34.22C132.507 34.0733 132.113 33.8867 131.753 33.66C131.393 33.42 131.1 33.1067 130.873 32.72C130.647 32.3333 130.533 31.8467 130.533 31.26C130.533 30.5933 130.72 30.0267 131.093 29.56C131.467 29.0933 131.947 28.7333 132.533 28.48C133.133 28.2267 133.76 28.1 134.413 28.1C134.827 28.1 135.26 28.1533 135.713 28.26C136.167 28.3533 136.6 28.5133 137.013 28.74C137.427 28.9533 137.773 29.24 138.053 29.6C138.2 29.8 138.287 30.04 138.313 30.32C138.34 30.6 138.213 30.8533 137.933 31.08C137.733 31.24 137.5 31.3133 137.233 31.3C136.967 31.2733 136.747 31.18 136.573 31.02C136.347 30.7267 136.04 30.4933 135.653 30.32C135.28 30.1467 134.847 30.06 134.353 30.06C134.153 30.06 133.933 30.0867 133.693 30.14C133.467 30.18 133.267 30.28 133.093 30.44C132.92 30.5867 132.833 30.8267 132.833 31.16C132.833 31.4667 132.933 31.7133 133.133 31.9C133.333 32.0733 133.6 32.22 133.933 32.34C134.28 32.4467 134.647 32.5533 135.033 32.66C135.433 32.7667 135.84 32.8933 136.253 33.04C136.667 33.1867 137.047 33.38 137.393 33.62C137.74 33.86 138.02 34.1733 138.233 34.56C138.447 34.9333 138.553 35.4133 138.553 36C138.553 36.68 138.353 37.26 137.953 37.74C137.553 38.22 137.053 38.5867 136.453 38.84C135.853 39.08 135.24 39.2 134.613 39.2C133.827 39.2 133.04 39.0667 132.253 38.8C131.467 38.52 130.813 38.0333 130.293 37.34ZM146.602 39.2C145.468 39.2 144.482 38.9667 143.642 38.5C142.815 38.02 142.175 37.3733 141.722 36.56C141.282 35.7467 141.062 34.8267 141.062 33.8C141.062 32.6 141.302 31.58 141.782 30.74C142.275 29.8867 142.915 29.2333 143.702 28.78C144.488 28.3267 145.322 28.1 146.202 28.1C146.882 28.1 147.522 28.24 148.122 28.52C148.735 28.8 149.275 29.1867 149.742 29.68C150.208 30.16 150.575 30.72 150.842 31.36C151.122 32 151.262 32.68 151.262 33.4C151.248 33.72 151.122 33.98 150.882 34.18C150.642 34.38 150.362 34.48 150.042 34.48H142.402L141.802 32.48H149.142L148.702 32.88V32.34C148.675 31.9533 148.535 31.6067 148.282 31.3C148.042 30.9933 147.735 30.7533 147.362 30.58C147.002 30.3933 146.615 30.3 146.202 30.3C145.802 30.3 145.428 30.3533 145.082 30.46C144.735 30.5667 144.435 30.7467 144.182 31C143.928 31.2533 143.728 31.5933 143.582 32.02C143.435 32.4467 143.362 32.9867 143.362 33.64C143.362 34.36 143.508 34.9733 143.802 35.48C144.108 35.9733 144.495 36.3533 144.962 36.62C145.442 36.8733 145.948 37 146.482 37C146.975 37 147.368 36.96 147.662 36.88C147.955 36.8 148.188 36.7067 148.362 36.6C148.548 36.48 148.715 36.38 148.862 36.3C149.102 36.18 149.328 36.12 149.542 36.12C149.835 36.12 150.075 36.22 150.262 36.42C150.462 36.62 150.562 36.8533 150.562 37.12C150.562 37.48 150.375 37.8067 150.002 38.1C149.655 38.3933 149.168 38.6533 148.542 38.88C147.915 39.0933 147.268 39.2 146.602 39.2ZM160.079 28.1C161.065 28.1 161.812 28.3067 162.319 28.72C162.839 29.1333 163.192 29.6867 163.379 30.38C163.579 31.06 163.679 31.82 163.679 32.66V37.78C163.679 38.1267 163.565 38.42 163.339 38.66C163.112 38.8867 162.825 39 162.479 39C162.132 39 161.845 38.8867 161.619 38.66C161.392 38.42 161.279 38.1267 161.279 37.78V32.66C161.279 32.22 161.219 31.8267 161.099 31.48C160.992 31.12 160.792 30.8333 160.499 30.62C160.205 30.4067 159.785 30.3 159.239 30.3C158.705 30.3 158.252 30.4067 157.879 30.62C157.519 30.8333 157.239 31.12 157.039 31.48C156.852 31.8267 156.759 32.22 156.759 32.66V37.78C156.759 38.1267 156.645 38.42 156.419 38.66C156.192 38.8867 155.905 39 155.559 39C155.212 39 154.925 38.8867 154.699 38.66C154.472 38.42 154.359 38.1267 154.359 37.78V29.52C154.359 29.1733 154.472 28.8867 154.699 28.66C154.925 28.42 155.212 28.3 155.559 28.3C155.905 28.3 156.192 28.42 156.419 28.66C156.645 28.8867 156.759 29.1733 156.759 29.52V30.38L156.459 30.32C156.579 30.0933 156.752 29.8533 156.979 29.6C157.205 29.3333 157.472 29.0867 157.779 28.86C158.085 28.6333 158.432 28.4533 158.819 28.32C159.205 28.1733 159.625 28.1 160.079 28.1ZM156.639 27.2C156.345 27.2 156.085 27.08 155.859 26.84C155.645 26.6 155.539 26.2667 155.539 25.84C155.539 25.4133 155.739 25.0133 156.139 24.64C156.539 24.2667 157.159 24.08 157.999 24.08C158.345 24.08 158.659 24.1467 158.939 24.28C159.219 24.4133 159.472 24.5667 159.699 24.74C159.939 24.9 160.159 25.0467 160.359 25.18C160.572 25.3133 160.765 25.38 160.939 25.38C161.085 25.38 161.199 25.3467 161.279 25.28C161.359 25.2 161.379 25.0933 161.339 24.96C161.245 24.6533 161.279 24.4133 161.439 24.24C161.599 24.0667 161.799 23.98 162.039 23.98C162.345 23.98 162.605 24.1 162.819 24.34C163.032 24.5667 163.139 24.8867 163.139 25.3C163.139 25.5267 163.065 25.78 162.919 26.06C162.772 26.34 162.532 26.5867 162.199 26.8C161.865 27 161.419 27.1 160.859 27.1C160.579 27.1 160.292 27.0333 159.999 26.9C159.719 26.7667 159.439 26.62 159.159 26.46C158.879 26.2867 158.619 26.1333 158.379 26C158.139 25.8667 157.925 25.8 157.739 25.8C157.605 25.8 157.492 25.84 157.399 25.92C157.319 25.9867 157.299 26.0867 157.339 26.22C157.432 26.5133 157.399 26.7533 157.239 26.94C157.079 27.1133 156.879 27.2 156.639 27.2ZM176.033 28.1C176.379 28.1 176.666 28.2133 176.893 28.44C177.119 28.6667 177.233 28.96 177.233 29.32V37.78C177.233 38.1267 177.119 38.42 176.893 38.66C176.666 38.8867 176.379 39 176.033 39C175.686 39 175.399 38.8867 175.173 38.66C174.946 38.42 174.833 38.1267 174.833 37.78V36.8L175.273 36.98C175.273 37.1533 175.179 37.3667 174.993 37.62C174.806 37.86 174.553 38.1 174.233 38.34C173.913 38.58 173.533 38.7867 173.093 38.96C172.666 39.12 172.199 39.2 171.693 39.2C170.773 39.2 169.939 38.9667 169.193 38.5C168.446 38.02 167.853 37.3667 167.413 36.54C166.986 35.7 166.773 34.74 166.773 33.66C166.773 32.5667 166.986 31.6067 167.413 30.78C167.853 29.94 168.439 29.2867 169.173 28.82C169.906 28.34 170.719 28.1 171.613 28.1C172.186 28.1 172.713 28.1867 173.193 28.36C173.673 28.5333 174.086 28.7533 174.433 29.02C174.793 29.2867 175.066 29.56 175.253 29.84C175.453 30.1067 175.553 30.3333 175.553 30.52L174.833 30.78V29.32C174.833 28.9733 174.946 28.6867 175.173 28.46C175.399 28.22 175.686 28.1 176.033 28.1ZM171.993 37C172.579 37 173.093 36.8533 173.533 36.56C173.973 36.2667 174.313 35.8667 174.553 35.36C174.806 34.8533 174.933 34.2867 174.933 33.66C174.933 33.02 174.806 32.4467 174.553 31.94C174.313 31.4333 173.973 31.0333 173.533 30.74C173.093 30.4467 172.579 30.3 171.993 30.3C171.419 30.3 170.913 30.4467 170.473 30.74C170.033 31.0333 169.686 31.4333 169.433 31.94C169.193 32.4467 169.073 33.02 169.073 33.66C169.073 34.2867 169.193 34.8533 169.433 35.36C169.686 35.8667 170.033 36.2667 170.473 36.56C170.913 36.8533 171.419 37 171.993 37Z" fill="white"/>
</g>
<defs>
<filter id="filter0_d_795_1033" x="0" y="0" width="194" height="71" filterUnits="userSpaceOnUse" color-interpolation-filters="sRGB">
<feFlood flood-opacity="0" result="BackgroundImageFix"/>
<feColorMatrix in="SourceAlpha" type="matrix" values="0 0 0 0 0 0 0 0 0 0 0 0 0 0 0 0 0 0 127 0" result="hardAlpha"/>
<feOffset dy="4"/>
<feGaussianBlur stdDeviation="2"/>
<feComposite in2="hardAlpha" operator="out"/>
<feColorMatrix type="matrix" values="0 0 0 0 0 0 0 0 0 0 0 0 0 0 0 0 0 0 0.25 0"/>
<feBlend mode="normal" in2="BackgroundImageFix" result="effect1_dropShadow_795_1033"/>
<feBlend mode="normal" in="SourceGraphic" in2="effect1_dropShadow_795_1033" result="shape"/>
</filter>
</defs>
</svg>
