<svg width="32" height="34" viewBox="0 0 32 34" fill="none" xmlns="http://www.w3.org/2000/svg">
<path fill-rule="evenodd" clip-rule="evenodd" d="M11.6733 1.96497L13.3533 3.03597C15.4844 4.3739 17.1214 6.44514 17.9933 8.90663C18.2893 8.1983 18.6413 7.51122 18.9679 6.81705L20.2759 8.2068C23.2119 11.3263 25.9999 16.0013 25.9999 20.5417C25.9999 26.6305 22.4666 30.491 16.8133 31.1582L14.9599 31.3764L15.3653 29.4426C15.6813 27.9296 15.7386 26.9408 15.6719 26.248C15.5919 25.3768 15.2026 24.6925 14.7173 24.0126C14.2533 23.3609 13.7933 22.7078 13.4253 21.9867C11.9119 23.2575 11.3253 24.405 11.1373 25.3499C10.8973 26.5597 11.2373 27.7965 11.8586 29.1168L12.9546 31.4458L10.5199 31.1582C7.08526 30.753 3.70126 28.315 2.36793 24.7577C0.974592 21.0361 1.95993 16.5325 6.46126 12.3874C9.44793 9.63763 11.0293 6.07188 11.6733 1.96497ZM13.4493 6.63997C12.4333 9.67163 10.4826 12.4341 8.20659 14.5294C4.32526 18.1036 3.97726 21.3917 4.84659 23.7094C5.49326 25.4377 6.88926 26.8586 8.54393 27.6647C8.34945 26.7102 8.344 25.7231 8.52793 24.7662C8.96259 22.576 10.4453 20.5233 13.2933 18.632L14.7293 17.6786L15.2653 19.3857C15.7346 20.8817 16.7079 21.94 17.4693 23.2532C18.3066 24.6982 18.4666 26.3557 18.2959 28.0104C21.7893 27.0825 23.3333 24.2675 23.3333 20.5417C23.3333 17.3939 21.5466 14.3055 19.7733 11.8915C19.0426 13.6312 17.5026 14.2432 15.9999 15.0422V12.75C15.9999 10.8106 15.2573 8.44622 13.4493 6.64138V6.63997Z" fill="#F2F2F2"/>
</svg>
