<svg width="30" height="30" viewBox="0 0 30 30" fill="none" xmlns="http://www.w3.org/2000/svg">
<path d="M26.8587 27.625L25.9727 27.312C25.9755 27.2483 25.9705 27.1845 25.9577 27.1221C25.9577 27.1221 24.7568 26.4256 23.3503 26.7186C21.9438 27.0116 20.5673 27.832 19.6588 27.539C19.4593 27.4745 19.2083 27.3206 18.9098 27.1246C20.0953 26.7516 21.4443 26.5851 21.7973 25.9571C22.3248 25.0196 23.5113 24.9531 23.5113 24.9531C23.5113 24.8601 23.4973 24.7821 23.4758 24.7126L24.4188 24.5411C24.4688 24.5321 24.4958 24.4376 24.4773 24.3311C24.4598 24.2246 24.4048 24.1466 24.3543 24.1561L23.2113 24.3686C23.0368 24.2601 22.8523 24.2481 22.8523 24.2481C21.3808 24.1536 21.7388 25.8401 19.8053 25.8401C19.0433 25.8401 18.5713 26.1881 18.0618 26.5661C17.2983 26.0796 16.3303 25.5516 15.1458 25.3061C17.6128 24.5641 20.7498 24.0161 23.0658 22.6506C28.6977 19.3312 31.9487 14.3128 28.7227 8.6109C25.5012 2.912 16.3128 -5.04185 12.6923 4.30247C11.1683 8.2359 9.81381 10.7339 8.78831 12.4993C9.47181 11.1138 10.3843 8.94389 10.8608 6.44493C5.43182 9.18188 5.57682 14.4953 5.91882 16.7582C5.81271 16.7954 5.71041 16.8426 5.61332 16.8992L1.08134 19.5692C-0.420158 20.4542 -0.349158 23.4546 1.23934 26.2641C2.49833 28.489 4.32833 29.926 5.78282 29.9915L5.77632 30C5.80532 30 5.83282 29.997 5.86182 29.9965C5.90332 29.997 5.94332 29.994 5.98382 29.992C8.01581 29.91 9.45081 28.668 10.6798 28.5215C12.2658 28.333 16.0783 29.242 17.4133 27.908C17.4906 27.8317 17.5738 27.7616 17.6623 27.6985C18.4918 28.31 19.3268 28.7255 20.4933 28.332C22.2658 27.7335 23.9063 27.2796 25.7812 27.8585C25.7812 27.8585 25.8312 27.793 25.8797 27.689L26.7217 27.9905C26.7697 28.008 26.8387 27.9395 26.8772 27.839C26.9142 27.7375 26.9062 27.6425 26.8587 27.625ZM18.3643 1.97552C19.8538 1.09753 24.6788 4.66497 26.8542 8.5124C29.0312 12.3608 25.5837 13.1098 23.4068 9.26138C21.2318 5.41495 15.9113 3.42299 18.3643 1.97552ZM6.05182 28.3625C5.03032 28.966 3.26483 27.797 2.10933 25.7521C0.952337 23.7056 0.844338 21.5602 1.86533 20.9567C2.88783 20.3562 4.65282 21.5262 5.81032 23.5701C6.96582 25.6136 7.07432 27.7605 6.05182 28.3625ZM8.57831 27.908C8.75231 26.4266 8.32481 24.5411 7.29082 22.7101C6.27882 20.9202 4.87532 19.5587 3.50433 18.9572L5.97082 17.5042C6.15095 17.4011 6.35581 17.3491 6.56332 17.3537C7.62031 17.3537 9.34581 18.5137 10.5988 20.7307C12.0943 23.3771 12.0168 25.8806 11.0113 26.4721L8.57831 27.908ZM14.2383 27.3596C13.1333 27.1376 12.0408 27.1486 11.0443 27.2711L12.7293 26.2776C13.0301 26.1044 13.3425 25.9522 13.6643 25.8221C14.4493 25.8981 15.5348 26.1086 16.3283 26.6741C16.5708 26.8476 16.8018 27.0291 17.0273 27.2076C16.3953 27.487 15.5568 27.625 14.2383 27.3596Z" fill="#F2F2F2"/>
</svg>
