<svg width="34" height="34" viewBox="0 0 34 34" fill="none" xmlns="http://www.w3.org/2000/svg">
<path d="M5.66667 9.91667H9.91667C10.2924 9.91667 10.6527 9.76741 10.9184 9.50173C11.1841 9.23606 11.3333 8.87572 11.3333 8.5V7.08333C11.3333 6.33189 11.6318 5.61122 12.1632 5.07986C12.6946 4.54851 13.4152 4.25 14.1667 4.25C14.9181 4.25 15.6388 4.54851 16.1701 5.07986C16.7015 5.61122 17 6.33189 17 7.08333V8.5C17 8.87572 17.1493 9.23606 17.4149 9.50173C17.6806 9.76741 18.0409 9.91667 18.4167 9.91667H22.6667C23.0424 9.91667 23.4027 10.0659 23.6684 10.3316C23.9341 10.5973 24.0833 10.9576 24.0833 11.3333V15.5833C24.0833 15.9591 24.2326 16.3194 24.4983 16.5851C24.7639 16.8507 25.1243 17 25.5 17H26.9167C27.6681 17 28.3888 17.2985 28.9201 17.8299C29.4515 18.3612 29.75 19.0819 29.75 19.8333C29.75 20.5848 29.4515 21.3054 28.9201 21.8368C28.3888 22.3682 27.6681 22.6667 26.9167 22.6667H25.5C25.1243 22.6667 24.7639 22.8159 24.4983 23.0816C24.2326 23.3473 24.0833 23.7076 24.0833 24.0833V28.3333C24.0833 28.7091 23.9341 29.0694 23.6684 29.3351C23.4027 29.6007 23.0424 29.75 22.6667 29.75H18.4167C18.0409 29.75 17.6806 29.6007 17.4149 29.3351C17.1493 29.0694 17 28.7091 17 28.3333V26.9167C17 26.1652 16.7015 25.4446 16.1701 24.9132C15.6388 24.3818 14.9181 24.0833 14.1667 24.0833C13.4152 24.0833 12.6946 24.3818 12.1632 24.9132C11.6318 25.4446 11.3333 26.1652 11.3333 26.9167V28.3333C11.3333 28.7091 11.1841 29.0694 10.9184 29.3351C10.6527 29.6007 10.2924 29.75 9.91667 29.75H5.66667C5.29094 29.75 4.93061 29.6007 4.66493 29.3351C4.39926 29.0694 4.25 28.7091 4.25 28.3333V24.0833C4.25 23.7076 4.39926 23.3473 4.66493 23.0816C4.93061 22.8159 5.29094 22.6667 5.66667 22.6667H7.08333C7.83478 22.6667 8.55545 22.3682 9.0868 21.8368C9.61816 21.3054 9.91667 20.5848 9.91667 19.8333C9.91667 19.0819 9.61816 18.3612 9.0868 17.8299C8.55545 17.2985 7.83478 17 7.08333 17H5.66667C5.29094 17 4.93061 16.8507 4.66493 16.5851C4.39926 16.3194 4.25 15.9591 4.25 15.5833V11.3333C4.25 10.9576 4.39926 10.5973 4.66493 10.3316C4.93061 10.0659 5.29094 9.91667 5.66667 9.91667Z" stroke="#F2F2F2" stroke-width="2" stroke-linecap="round" stroke-linejoin="round"/>
</svg>
