<svg width="114" height="13" viewBox="0 0 114 13" fill="none" xmlns="http://www.w3.org/2000/svg">
<path d="M7.126 10.128C7.40333 10.128 7.63267 10.2187 7.814 10.4C8.006 10.5707 8.102 10.7947 8.102 11.072C8.102 11.3387 8.006 11.5627 7.814 11.744C7.63267 11.9147 7.40333 12 7.126 12H1.926C1.64867 12 1.414 11.9093 1.222 11.728C1.04067 11.536 0.95 11.3013 0.95 11.024V1.776C0.95 1.49867 1.046 1.26933 1.238 1.088C1.43 0.895999 1.67533 0.799999 1.974 0.799999C2.23 0.799999 2.454 0.895999 2.646 1.088C2.84867 1.26933 2.95 1.49867 2.95 1.776V10.4L2.598 10.128H7.126ZM18.5821 6.4C18.5821 7.2 18.4488 7.94667 18.1821 8.64C17.9155 9.33333 17.5368 9.94667 17.0461 10.48C16.5661 11.0027 15.9901 11.4133 15.3181 11.712C14.6568 12.0107 13.9315 12.16 13.1421 12.16C12.3528 12.16 11.6275 12.0107 10.9661 11.712C10.3048 11.4133 9.72879 11.0027 9.23813 10.48C8.75813 9.94667 8.38479 9.33333 8.11813 8.64C7.85146 7.94667 7.71813 7.2 7.71813 6.4C7.71813 5.6 7.85146 4.85333 8.11813 4.16C8.38479 3.46667 8.75813 2.85867 9.23813 2.336C9.72879 1.80267 10.3048 1.38667 10.9661 1.088C11.6275 0.789333 12.3528 0.639999 13.1421 0.639999C13.9315 0.639999 14.6568 0.789333 15.3181 1.088C15.9901 1.38667 16.5661 1.80267 17.0461 2.336C17.5368 2.85867 17.9155 3.46667 18.1821 4.16C18.4488 4.85333 18.5821 5.6 18.5821 6.4ZM16.5021 6.4C16.5021 5.68533 16.3581 5.04 16.0701 4.464C15.7821 3.87733 15.3875 3.41333 14.8861 3.072C14.3848 2.73067 13.8035 2.56 13.1421 2.56C12.4808 2.56 11.8995 2.73067 11.3981 3.072C10.8968 3.41333 10.5021 3.872 10.2141 4.448C9.93679 5.024 9.79813 5.67467 9.79813 6.4C9.79813 7.11467 9.93679 7.76533 10.2141 8.352C10.5021 8.928 10.8968 9.38667 11.3981 9.728C11.8995 10.0693 12.4808 10.24 13.1421 10.24C13.8035 10.24 14.3848 10.0693 14.8861 9.728C15.3875 9.38667 15.7821 8.928 16.0701 8.352C16.3581 7.76533 16.5021 7.11467 16.5021 6.4ZM22.9111 0.783999C23.0605 0.783999 23.2151 0.826666 23.3751 0.912C23.5458 0.986666 23.6738 1.088 23.7591 1.216L27.6471 7.2L26.8471 7.168L30.8311 1.216C31.0338 0.927999 31.2951 0.783999 31.6151 0.783999C31.8711 0.783999 32.1005 0.874666 32.3031 1.056C32.5058 1.23733 32.6071 1.472 32.6071 1.76V11.024C32.6071 11.3013 32.5165 11.536 32.3351 11.728C32.1538 11.9093 31.9138 12 31.6151 12C31.3165 12 31.0711 11.9093 30.8791 11.728C30.6978 11.536 30.6071 11.3013 30.6071 11.024V3.488L31.2311 3.632L27.9671 8.608C27.8711 8.72533 27.7485 8.82667 27.5991 8.912C27.4605 8.99733 27.3165 9.03467 27.1671 9.024C27.0285 9.03467 26.8845 8.99733 26.7351 8.912C26.5965 8.82667 26.4791 8.72533 26.3831 8.608L23.3271 3.776L23.7431 2.928V11.024C23.7431 11.3013 23.6578 11.536 23.4871 11.728C23.3165 11.9093 23.0925 12 22.8151 12C22.5485 12 22.3298 11.9093 22.1591 11.728C21.9885 11.536 21.9031 11.3013 21.9031 11.024V1.76C21.9031 1.49333 21.9991 1.264 22.1911 1.072C22.3938 0.879999 22.6338 0.783999 22.9111 0.783999ZM37.6245 3.312L34.1685 11.44C34.0938 11.6427 33.9765 11.8027 33.8165 11.92C33.6672 12.0267 33.5018 12.08 33.3205 12.08C33.0325 12.08 32.8192 12 32.6805 11.84C32.5418 11.68 32.4725 11.4827 32.4725 11.248C32.4725 11.152 32.4885 11.0507 32.5205 10.944L36.5045 1.376C36.5898 1.16267 36.7178 0.997333 36.8885 0.879999C37.0698 0.762666 37.2618 0.714666 37.4645 0.735999C37.6565 0.735999 37.8325 0.794666 37.9925 0.912C38.1632 1.01867 38.2858 1.17333 38.3605 1.376L42.2965 10.752C42.3498 10.8907 42.3765 11.0187 42.3765 11.136C42.3765 11.424 42.2805 11.6533 42.0885 11.824C41.9072 11.9947 41.7045 12.08 41.4805 12.08C41.2885 12.08 41.1125 12.0213 40.9525 11.904C40.8032 11.7867 40.6858 11.6267 40.6005 11.424L37.1605 3.408L37.6245 3.312ZM34.6645 9.488L35.5445 7.648H39.8645L40.1685 9.488H34.6645ZM45.8313 12.16C45.0846 12.16 44.4126 12.0693 43.8153 11.888C43.2179 11.696 42.6473 11.3653 42.1033 10.896C41.9646 10.7787 41.8579 10.6453 41.7833 10.496C41.7086 10.3467 41.6713 10.1973 41.6713 10.048C41.6713 9.80267 41.7566 9.58933 41.9273 9.408C42.1086 9.216 42.3326 9.12 42.5993 9.12C42.8019 9.12 42.9833 9.184 43.1432 9.312C43.5486 9.64267 43.9486 9.89333 44.3433 10.064C44.7486 10.2347 45.2446 10.32 45.8313 10.32C46.2259 10.32 46.5886 10.2613 46.9193 10.144C47.2499 10.016 47.5166 9.85067 47.7193 9.648C47.9219 9.43467 48.0233 9.19467 48.0233 8.928C48.0233 8.608 47.9273 8.336 47.7353 8.112C47.5433 7.888 47.2499 7.70133 46.8553 7.552C46.4606 7.392 45.9593 7.26933 45.3513 7.184C44.7753 7.09867 44.2686 6.97067 43.8313 6.8C43.3939 6.61867 43.0259 6.39467 42.7273 6.128C42.4393 5.85067 42.2206 5.53067 42.0713 5.168C41.9219 4.79467 41.8473 4.37867 41.8473 3.92C41.8473 3.22667 42.0233 2.63467 42.3753 2.144C42.7379 1.65333 43.2233 1.28 43.8313 1.024C44.4393 0.767999 45.1113 0.639999 45.8473 0.639999C46.5406 0.639999 47.1806 0.746666 47.7673 0.959999C48.3646 1.16267 48.8499 1.424 49.2233 1.744C49.5326 1.98933 49.6873 2.272 49.6873 2.592C49.6873 2.82667 49.5966 3.04 49.4153 3.232C49.2339 3.424 49.0206 3.52 48.7753 3.52C48.6153 3.52 48.4713 3.472 48.3433 3.376C48.1726 3.22667 47.9433 3.088 47.6553 2.96C47.3673 2.82133 47.0633 2.70933 46.7433 2.624C46.4233 2.528 46.1246 2.48 45.8473 2.48C45.3886 2.48 44.9993 2.53867 44.6793 2.656C44.3699 2.77333 44.1353 2.93333 43.9753 3.136C43.8153 3.33867 43.7353 3.57333 43.7353 3.84C43.7353 4.16 43.8259 4.42667 44.0073 4.64C44.1993 4.84267 44.4713 5.008 44.8233 5.136C45.1753 5.25333 45.5966 5.36 46.0873 5.456C46.7273 5.57333 47.2873 5.712 47.7673 5.872C48.2579 6.032 48.6633 6.24 48.9833 6.496C49.3033 6.74133 49.5433 7.056 49.7033 7.44C49.8633 7.81333 49.9433 8.272 49.9433 8.816C49.9433 9.50933 49.7513 10.1067 49.3673 10.608C48.9833 11.1093 48.4766 11.4933 47.8473 11.76C47.2286 12.0267 46.5566 12.16 45.8313 12.16ZM61.4385 0.768C61.7052 0.768 61.9345 0.858666 62.1265 1.04C62.3292 1.21067 62.4305 1.42933 62.4305 1.696C62.4305 1.83467 62.3985 1.97867 62.3345 2.128L58.3825 11.376C58.2865 11.5893 58.1478 11.7493 57.9665 11.856C57.7958 11.952 57.6198 12 57.4385 12C57.2678 11.9893 57.1025 11.936 56.9425 11.84C56.7825 11.7333 56.6598 11.584 56.5745 11.392L52.6225 2.112C52.5905 2.048 52.5692 1.984 52.5585 1.92C52.5478 1.84533 52.5425 1.776 52.5425 1.712C52.5425 1.40267 52.6545 1.168 52.8785 1.008C53.1025 0.837333 53.3158 0.752 53.5185 0.752C53.9238 0.752 54.2172 0.96 54.3985 1.376L57.9025 9.616L57.3425 9.632L60.5585 1.376C60.7398 0.970666 61.0332 0.768 61.4385 0.768ZM63.5823 0.799999H68.9423C69.2196 0.799999 69.4489 0.890666 69.6302 1.072C69.8223 1.24267 69.9183 1.46667 69.9183 1.744C69.9183 2.01067 69.8223 2.22933 69.6302 2.4C69.4489 2.56 69.2196 2.64 68.9423 2.64H64.4623L64.6063 2.368V5.488L64.4783 5.36H68.2223C68.4996 5.36 68.7289 5.45067 68.9103 5.632C69.1023 5.80267 69.1983 6.02667 69.1983 6.304C69.1983 6.57067 69.1023 6.78933 68.9103 6.96C68.7289 7.12 68.4996 7.2 68.2223 7.2H64.5263L64.6063 7.072V10.304L64.4783 10.16H68.9423C69.2196 10.16 69.4489 10.256 69.6302 10.448C69.8223 10.6293 69.9183 10.8427 69.9183 11.088C69.9183 11.3547 69.8223 11.5733 69.6302 11.744C69.4489 11.9147 69.2196 12 68.9423 12H63.5823C63.3049 12 63.0703 11.9093 62.8783 11.728C62.6969 11.536 62.6063 11.3013 62.6063 11.024V1.776C62.6063 1.49867 62.6969 1.26933 62.8783 1.088C63.0703 0.895999 63.3049 0.799999 63.5823 0.799999ZM78.7585 0.799999C79.0145 0.799999 79.2225 0.885333 79.3825 1.056C79.5425 1.22667 79.6225 1.44 79.6225 1.696V11.024C79.6225 11.3013 79.5265 11.536 79.3345 11.728C79.1532 11.9093 78.9238 12 78.6465 12C78.5078 12 78.3638 11.9787 78.2145 11.936C78.0758 11.8827 77.9692 11.8133 77.8945 11.728L71.6065 3.744L72.0225 3.488V11.104C72.0225 11.36 71.9372 11.5733 71.7665 11.744C71.6065 11.9147 71.3932 12 71.1265 12C70.8705 12 70.6625 11.9147 70.5025 11.744C70.3425 11.5733 70.2625 11.36 70.2625 11.104V1.776C70.2625 1.49867 70.3532 1.26933 70.5345 1.088C70.7265 0.895999 70.9612 0.799999 71.2385 0.799999C71.3878 0.799999 71.5425 0.831999 71.7025 0.896C71.8625 0.949333 71.9798 1.03467 72.0545 1.152L78.1505 8.928L77.8785 9.12V1.696C77.8785 1.44 77.9585 1.22667 78.1185 1.056C78.2785 0.885333 78.4918 0.799999 78.7585 0.799999ZM85.3281 0.799999C86.0961 0.799999 86.7788 0.943999 87.3761 1.232C87.9735 1.52 88.4748 1.92533 88.8801 2.448C89.2961 2.96 89.6055 3.55733 89.8081 4.24C90.0215 4.912 90.1281 5.632 90.1281 6.4C90.1281 7.43467 89.9415 8.37867 89.5681 9.232C89.1948 10.0747 88.6508 10.7467 87.9361 11.248C87.2321 11.7493 86.3628 12 85.3281 12H81.5041C81.2268 12 80.9921 11.9093 80.8001 11.728C80.6188 11.536 80.5281 11.3013 80.5281 11.024V1.776C80.5281 1.49867 80.6188 1.26933 80.8001 1.088C80.9921 0.895999 81.2268 0.799999 81.5041 0.799999H85.3281ZM85.1681 10.16C85.8401 10.16 86.3895 9.98933 86.8161 9.648C87.2428 9.296 87.5521 8.83733 87.7441 8.272C87.9468 7.696 88.0481 7.072 88.0481 6.4C88.0481 5.89867 87.9895 5.424 87.8721 4.976C87.7655 4.51733 87.5948 4.11733 87.3601 3.776C87.1255 3.424 86.8268 3.14667 86.4641 2.944C86.1015 2.74133 85.6695 2.64 85.1681 2.64H82.3681L82.5281 2.496V10.336L82.4321 10.16H85.1681ZM92.4656 11.024C92.4656 11.3013 92.3643 11.536 92.1616 11.728C91.959 11.9093 91.7243 12 91.4576 12C91.159 12 90.919 11.9093 90.7376 11.728C90.5563 11.536 90.4656 11.3013 90.4656 11.024V1.776C90.4656 1.49867 90.5616 1.26933 90.7536 1.088C90.9456 0.895999 91.191 0.799999 91.4896 0.799999C91.7456 0.799999 91.9696 0.895999 92.1616 1.088C92.3643 1.26933 92.4656 1.49867 92.4656 1.776V11.024ZM98.1719 0.799999C98.9399 0.799999 99.6225 0.943999 100.22 1.232C100.817 1.52 101.319 1.92533 101.724 2.448C102.14 2.96 102.449 3.55733 102.652 4.24C102.865 4.912 102.972 5.632 102.972 6.4C102.972 7.43467 102.785 8.37867 102.412 9.232C102.039 10.0747 101.495 10.7467 100.78 11.248C100.076 11.7493 99.2065 12 98.1719 12H94.3479C94.0705 12 93.8359 11.9093 93.6439 11.728C93.4625 11.536 93.3719 11.3013 93.3719 11.024V1.776C93.3719 1.49867 93.4625 1.26933 93.6439 1.088C93.8359 0.895999 94.0705 0.799999 94.3479 0.799999H98.1719ZM98.0119 10.16C98.6839 10.16 99.2332 9.98933 99.6599 9.648C100.087 9.296 100.396 8.83733 100.588 8.272C100.791 7.696 100.892 7.072 100.892 6.4C100.892 5.89867 100.833 5.424 100.716 4.976C100.609 4.51733 100.439 4.11733 100.204 3.776C99.9692 3.424 99.6705 3.14667 99.3079 2.944C98.9452 2.74133 98.5132 2.64 98.0119 2.64H95.2119L95.3719 2.496V10.336L95.2759 10.16H98.0119ZM113.613 6.4C113.613 7.2 113.48 7.94667 113.213 8.64C112.947 9.33333 112.568 9.94667 112.077 10.48C111.597 11.0027 111.021 11.4133 110.349 11.712C109.688 12.0107 108.963 12.16 108.173 12.16C107.384 12.16 106.659 12.0107 105.997 11.712C105.336 11.4133 104.76 11.0027 104.269 10.48C103.789 9.94667 103.416 9.33333 103.149 8.64C102.883 7.94667 102.749 7.2 102.749 6.4C102.749 5.6 102.883 4.85333 103.149 4.16C103.416 3.46667 103.789 2.85867 104.269 2.336C104.76 1.80267 105.336 1.38667 105.997 1.088C106.659 0.789333 107.384 0.639999 108.173 0.639999C108.963 0.639999 109.688 0.789333 110.349 1.088C111.021 1.38667 111.597 1.80267 112.077 2.336C112.568 2.85867 112.947 3.46667 113.213 4.16C113.48 4.85333 113.613 5.6 113.613 6.4ZM111.533 6.4C111.533 5.68533 111.389 5.04 111.101 4.464C110.813 3.87733 110.419 3.41333 109.917 3.072C109.416 2.73067 108.835 2.56 108.173 2.56C107.512 2.56 106.931 2.73067 106.429 3.072C105.928 3.41333 105.533 3.872 105.245 4.448C104.968 5.024 104.829 5.67467 104.829 6.4C104.829 7.11467 104.968 7.76533 105.245 8.352C105.533 8.928 105.928 9.38667 106.429 9.728C106.931 10.0693 107.512 10.24 108.173 10.24C108.835 10.24 109.416 10.0693 109.917 9.728C110.419 9.38667 110.813 8.928 111.101 8.352C111.389 7.76533 111.533 7.11467 111.533 6.4Z" fill="#56CDDE"/>
</svg>
