<svg width="313" height="94" viewBox="0 0 313 94" fill="none" xmlns="http://www.w3.org/2000/svg">
<rect width="313" height="94" fill="#DC036D"/>
<path d="M121.832 37.4C123.149 37.4 124.378 37.78 125.518 38.54C126.683 39.3 127.621 40.326 128.33 41.618C129.039 42.91 129.394 44.354 129.394 45.95C129.394 47.5207 129.039 48.952 128.33 50.244C127.621 51.536 126.683 52.5747 125.518 53.36C124.378 54.12 123.149 54.5 121.832 54.5H114.84L115.22 53.816V61.682C115.22 62.3407 115.017 62.898 114.612 63.354C114.207 63.7847 113.675 64 113.016 64C112.383 64 111.863 63.7847 111.458 63.354C111.053 62.898 110.85 62.3407 110.85 61.682V39.718C110.85 39.0593 111.065 38.5147 111.496 38.084C111.952 37.628 112.509 37.4 113.168 37.4H121.832ZM121.832 50.168C122.313 50.168 122.782 49.9653 123.238 49.56C123.694 49.1547 124.074 48.6353 124.378 48.002C124.682 47.3433 124.834 46.6593 124.834 45.95C124.834 45.2153 124.682 44.5313 124.378 43.898C124.074 43.2647 123.694 42.758 123.238 42.378C122.782 41.9727 122.313 41.77 121.832 41.77H114.764L115.22 41.086V50.776L114.802 50.168H121.832ZM136.406 61.682C136.406 62.3407 136.178 62.898 135.722 63.354C135.292 63.7847 134.747 64 134.088 64C133.455 64 132.923 63.7847 132.492 63.354C132.062 62.898 131.846 62.3407 131.846 61.682V38.198C131.846 37.5393 132.062 36.9947 132.492 36.564C132.948 36.108 133.506 35.88 134.164 35.88C134.823 35.88 135.355 36.108 135.76 36.564C136.191 36.9947 136.406 37.5393 136.406 38.198V61.682ZM156.453 43.29C157.111 43.29 157.656 43.5053 158.087 43.936C158.517 44.3667 158.733 44.924 158.733 45.608V61.682C158.733 62.3407 158.517 62.898 158.087 63.354C157.656 63.7847 157.111 64 156.453 64C155.794 64 155.249 63.7847 154.819 63.354C154.388 62.898 154.173 62.3407 154.173 61.682V59.82L155.009 60.162C155.009 60.4913 154.831 60.8967 154.477 61.378C154.122 61.834 153.641 62.29 153.033 62.746C152.425 63.202 151.703 63.5947 150.867 63.924C150.056 64.228 149.169 64.38 148.207 64.38C146.459 64.38 144.875 63.9367 143.457 63.05C142.038 62.138 140.911 60.8967 140.075 59.326C139.264 57.73 138.859 55.906 138.859 53.854C138.859 51.7767 139.264 49.9527 140.075 48.382C140.911 46.786 142.025 45.5447 143.419 44.658C144.812 43.746 146.357 43.29 148.055 43.29C149.144 43.29 150.145 43.4547 151.057 43.784C151.969 44.1133 152.754 44.5313 153.413 45.038C154.097 45.5447 154.616 46.064 154.971 46.596C155.351 47.1027 155.541 47.5333 155.541 47.888L154.173 48.382V45.608C154.173 44.9493 154.388 44.4047 154.819 43.974C155.249 43.518 155.794 43.29 156.453 43.29ZM148.777 60.2C149.891 60.2 150.867 59.9213 151.703 59.364C152.539 58.8067 153.185 58.0467 153.641 57.084C154.122 56.1213 154.363 55.0447 154.363 53.854C154.363 52.638 154.122 51.5487 153.641 50.586C153.185 49.6233 152.539 48.8633 151.703 48.306C150.867 47.7487 149.891 47.47 148.777 47.47C147.687 47.47 146.725 47.7487 145.889 48.306C145.053 48.8633 144.394 49.6233 143.913 50.586C143.457 51.5487 143.229 52.638 143.229 53.854C143.229 55.0447 143.457 56.1213 143.913 57.084C144.394 58.0467 145.053 58.8067 145.889 59.364C146.725 59.9213 147.687 60.2 148.777 60.2ZM176.856 43.67C177.515 43.67 178.059 43.898 178.49 44.354C178.921 44.7847 179.136 45.3293 179.136 45.988V62.138C179.136 64.4687 178.693 66.318 177.806 67.686C176.945 69.0793 175.779 70.08 174.31 70.688C172.841 71.296 171.194 71.6 169.37 71.6C168.559 71.6 167.698 71.5367 166.786 71.41C165.874 71.2833 165.127 71.0933 164.544 70.84C163.784 70.5107 163.252 70.0927 162.948 69.586C162.669 69.1047 162.619 68.5853 162.796 68.028C163.024 67.2933 163.391 66.7867 163.898 66.508C164.405 66.2547 164.937 66.2293 165.494 66.432C165.899 66.5587 166.431 66.7487 167.09 67.002C167.749 67.2807 168.509 67.42 169.37 67.42C170.535 67.42 171.498 67.2553 172.258 66.926C173.043 66.622 173.626 66.09 174.006 65.33C174.411 64.5953 174.614 63.582 174.614 62.29V59.744L175.412 60.656C174.981 61.492 174.437 62.1887 173.778 62.746C173.145 63.278 172.385 63.6833 171.498 63.962C170.611 64.2407 169.598 64.38 168.458 64.38C167.115 64.38 165.937 64.076 164.924 63.468C163.936 62.8347 163.163 61.9733 162.606 60.884C162.049 59.7693 161.77 58.5027 161.77 57.084V45.988C161.77 45.3293 161.985 44.7847 162.416 44.354C162.847 43.898 163.391 43.67 164.05 43.67C164.709 43.67 165.253 43.898 165.684 44.354C166.115 44.7847 166.33 45.3293 166.33 45.988V55.716C166.33 57.3627 166.685 58.528 167.394 59.212C168.129 59.8707 169.142 60.2 170.434 60.2C171.321 60.2 172.068 60.0353 172.676 59.706C173.284 59.3513 173.753 58.8447 174.082 58.186C174.411 57.502 174.576 56.6787 174.576 55.716V45.988C174.576 45.3293 174.791 44.7847 175.222 44.354C175.653 43.898 176.197 43.67 176.856 43.67ZM193.697 64C192.988 64 192.405 63.7847 191.949 63.354C191.518 62.898 191.303 62.3407 191.303 61.682V39.718C191.303 39.0593 191.518 38.5147 191.949 38.084C192.405 37.628 192.962 37.4 193.621 37.4H205.971C206.63 37.4 207.174 37.6153 207.605 38.046C208.061 38.4513 208.289 38.9833 208.289 39.642C208.289 40.1993 208.061 40.6933 207.605 41.124C207.174 41.5547 206.63 41.77 205.971 41.77H195.711L196.053 41.314V48.952L195.787 48.458H204.261C204.92 48.458 205.464 48.6733 205.895 49.104C206.351 49.5093 206.579 50.0413 206.579 50.7C206.579 51.2573 206.351 51.7513 205.895 52.182C205.464 52.6127 204.92 52.828 204.261 52.828H195.711L196.053 52.486V61.682C196.053 62.3407 195.812 62.898 195.331 63.354C194.875 63.7847 194.33 64 193.697 64ZM224.89 43.67C225.549 43.67 226.094 43.898 226.524 44.354C226.955 44.7847 227.17 45.3293 227.17 45.988V55.64C227.17 58.3253 226.423 60.4533 224.928 62.024C223.434 63.5947 221.28 64.38 218.468 64.38C215.656 64.38 213.503 63.5947 212.008 62.024C210.539 60.4533 209.804 58.3253 209.804 55.64V45.988C209.804 45.3293 210.02 44.7847 210.45 44.354C210.881 43.898 211.426 43.67 212.084 43.67C212.743 43.67 213.288 43.898 213.718 44.354C214.149 44.7847 214.364 45.3293 214.364 45.988V55.64C214.364 57.1853 214.706 58.338 215.39 59.098C216.074 59.8327 217.1 60.2 218.468 60.2C219.862 60.2 220.9 59.8327 221.584 59.098C222.268 58.338 222.61 57.1853 222.61 55.64V45.988C222.61 45.3293 222.826 44.7847 223.256 44.354C223.687 43.898 224.232 43.67 224.89 43.67ZM241.075 43.29C242.95 43.29 244.368 43.6827 245.331 44.468C246.319 45.2533 246.99 46.3047 247.345 47.622C247.725 48.914 247.915 50.358 247.915 51.954V61.682C247.915 62.3407 247.7 62.898 247.269 63.354C246.838 63.7847 246.294 64 245.635 64C244.976 64 244.432 63.7847 244.001 63.354C243.57 62.898 243.355 62.3407 243.355 61.682V51.954C243.355 51.118 243.241 50.3707 243.013 49.712C242.81 49.028 242.43 48.4833 241.873 48.078C241.316 47.6727 240.518 47.47 239.479 47.47C238.466 47.47 237.604 47.6727 236.895 48.078C236.211 48.4833 235.679 49.028 235.299 49.712C234.944 50.3707 234.767 51.118 234.767 51.954V61.682C234.767 62.3407 234.552 62.898 234.121 63.354C233.69 63.7847 233.146 64 232.487 64C231.828 64 231.284 63.7847 230.853 63.354C230.422 62.898 230.207 62.3407 230.207 61.682V45.988C230.207 45.3293 230.422 44.7847 230.853 44.354C231.284 43.898 231.828 43.67 232.487 43.67C233.146 43.67 233.69 43.898 234.121 44.354C234.552 44.7847 234.767 45.3293 234.767 45.988V47.622L234.197 47.508C234.425 47.0773 234.754 46.6213 235.185 46.14C235.616 45.6333 236.122 45.1647 236.705 44.734C237.288 44.3033 237.946 43.9613 238.681 43.708C239.416 43.4293 240.214 43.29 241.075 43.29ZM253.566 55.602C252.704 55.602 252.236 55.1207 252.16 54.158L251.058 40.174C251.007 39.3887 251.21 38.73 251.666 38.198C252.147 37.666 252.768 37.4 253.528 37.4C254.288 37.4 254.908 37.666 255.39 38.198C255.871 38.73 256.074 39.3887 255.998 40.174L254.934 54.158C254.858 55.1207 254.402 55.602 253.566 55.602ZM253.3 64C252.565 64 251.995 63.81 251.59 63.43C251.21 63.0247 251.02 62.4547 251.02 61.72V61.074C251.02 60.3393 251.21 59.782 251.59 59.402C251.995 58.9967 252.565 58.794 253.3 58.794H253.794C254.528 58.794 255.086 58.9967 255.466 59.402C255.871 59.782 256.074 60.3393 256.074 61.074V61.72C256.074 62.4547 255.871 63.0247 255.466 63.43C255.086 63.81 254.528 64 253.794 64H253.3Z" fill="#F2F2F2"/>
<path d="M90.9477 41.4596L88.1606 42.3096C88.1072 42.326 88.0494 42.3204 88.0001 42.2942C87.9507 42.2681 87.9138 42.2234 87.8975 42.1701L85.518 34.406C85.2005 33.37 84.4834 32.5023 83.5246 31.9937C82.5658 31.4851 81.4437 31.3773 80.4052 31.6941L72.6222 34.0678C72.5688 34.0841 72.5111 34.0785 72.4617 34.0524C72.4124 34.0262 72.3755 33.9815 72.3591 33.9282L71.507 31.1479C70.6709 28.4198 67.8046 26.7967 65.0554 27.5835C64.3893 27.774 63.7678 28.0949 63.2274 28.5275C62.6869 28.9601 62.2382 29.4958 61.9074 30.1032C61.5766 30.7106 61.3705 31.3777 61.3009 32.0655C61.2313 32.7533 61.2997 33.448 61.5022 34.1091L62.3795 36.9719C62.3959 37.0252 62.3903 37.0828 62.3641 37.132C62.3378 37.1813 62.2931 37.2181 62.2396 37.2344L54.4567 39.6081C53.3998 39.9339 52.5151 40.6637 51.9958 41.638C51.4765 42.6123 51.3648 43.752 51.685 44.8083L53.8531 51.8828C53.8695 51.9361 53.9064 51.9807 53.9557 52.0069C54.0051 52.0331 54.0628 52.0386 54.1163 52.0223L56.8278 51.1954C59.7872 50.2928 63.0217 52.1069 63.9678 55.0465C64.9303 58.0361 63.3595 61.5137 60.3587 62.4289L57.5666 63.2805C57.5131 63.2968 57.4684 63.3336 57.4421 63.3828C57.4159 63.432 57.4103 63.4896 57.4267 63.543L59.5948 70.6175C59.9214 71.6718 60.6529 72.5543 61.6296 73.0723C62.6063 73.5904 63.7488 73.7019 64.8076 73.3824L71.8993 71.2195C71.9528 71.2032 71.9975 71.1664 72.0238 71.1172C72.05 71.068 72.0556 71.0104 72.0392 70.957L71.3945 68.8532C70.4616 65.8095 72.1524 62.4283 75.1786 61.4273C78.19 60.4319 81.5478 61.7172 82.4711 64.7297L83.3247 67.5151C83.341 67.5684 83.3779 67.6131 83.4273 67.6392C83.4766 67.6654 83.5344 67.671 83.5878 67.6547L90.7561 65.4684C91.7946 65.1517 92.6645 64.4364 93.1743 63.4799C93.6841 62.5234 93.7922 61.404 93.4747 60.368L91.0718 52.5275C91.0554 52.4742 91.061 52.4166 91.0872 52.3674C91.1135 52.3182 91.1582 52.2813 91.2117 52.265L94.0814 51.3898C96.8655 50.5407 98.3728 47.5892 97.5186 44.8018C96.6643 42.0144 93.6824 40.6256 90.9477 41.4596V41.4596Z" stroke="#F2F2F2" stroke-width="4" stroke-linecap="round" stroke-linejoin="round"/>
</svg>
